<?xml version="1.0" encoding="UTF-8" standalone="no"?>
<!-- Created with Inkscape (http://www.inkscape.org/) -->

<svg
   width="105.91021mm"
   height="32.768929mm"
   viewBox="0 0 105.91021 32.768929"
   version="1.1"
   id="svg5"
   xmlns="http://www.w3.org/2000/svg"
   xmlns:svg="http://www.w3.org/2000/svg">
  <defs
     id="defs2" />
  <g
     id="layer1"
     transform="translate(-48.145839,-144.08306)">
    <g
       id="g4732">
      <g
         aria-label="React"
         id="text1600"
         style="font-size:26.7749px;line-height:1.25;fill:#ffffff;stroke-width:0.264582"
         transform="translate(92.8125,17.848558)">
        <path
           d="m -6.6644091,145.45448 v -19.16601 h 8.4978932 q 2.5624417,0 3.8959572,0.52294 1.3335156,0.50988 2.1310102,1.81724 0.7974946,1.30737 0.7974946,2.88929 0,2.03949 -1.3204419,3.43838 -1.3204419,1.39888 -4.0789887,1.77802 1.0066735,0.48372 1.5296207,0.95438 1.111263,1.01974 2.1048628,2.54936 l 3.333789,5.2164 H 7.0368095 l -2.5362943,-3.98747 q -1.1112629,-1.72573 -1.8303154,-2.64088 -0.7190525,-0.91516 -1.2942945,-1.28122 -0.56216835,-0.36607 -1.15048404,-0.50988 -0.4314315,-0.0915 -1.41195766,-0.0915 h -2.9415784 v 8.51096 z m 2.5362943,-10.70734 h 5.4517253 q 1.7387997,0 2.7193259,-0.35299 0.9805261,-0.36606 1.4903997,-1.15049 0.5098736,-0.79749 0.5098736,-1.72572 0,-1.35966 -0.9935998,-2.2356 -0.9805262,-0.87594 -3.1115363,-0.87594 h -6.0661884 z"
           style="font-family:Arial;-inkscape-font-specification:'Arial, Normal'"
           id="path4680" />
        <path
           d="m 21.836218,140.98328 2.431704,0.3007 q -0.575242,2.13101 -2.13101,3.30764 -1.555768,1.17663 -3.974399,1.17663 -3.046168,0 -4.837262,-1.86954 -1.778021,-1.88261 -1.778021,-5.26869 0,-3.50375 1.804168,-5.43865 1.804168,-1.93491 4.680378,-1.93491 2.784694,0 4.549641,1.89569 1.764947,1.89568 1.764947,5.33406 0,0.20918 -0.01307,0.62754 H 13.978935 q 0.130737,2.28789 1.294294,3.50374 1.163558,1.21586 2.902358,1.21586 1.294294,0 2.209452,-0.67983 0.915158,-0.67984 1.451179,-2.17024 z m -7.726546,-3.80444 h 7.752693 q -0.156884,-1.75187 -0.88901,-2.62781 -1.124337,-1.35966 -2.915432,-1.35966 -1.621136,0 -2.732399,1.08512 -1.098189,1.08511 -1.215852,2.90235 z"
           style="font-family:Arial;-inkscape-font-specification:'Arial, Normal'"
           id="path4682" />
        <path
           d="m 36.282635,143.74183 q -1.307368,1.11126 -2.523221,1.56884 -1.202778,0.45758 -2.588589,0.45758 -2.287894,0 -3.51682,-1.11126 -1.228926,-1.12434 -1.228926,-2.86314 0,-1.01975 0.457579,-1.85646 0.470652,-0.84979 1.215852,-1.35966 0.758274,-0.50988 1.699579,-0.77135 0.692905,-0.18303 2.091789,-0.35299 2.850062,-0.33992 4.196652,-0.81057 0.01307,-0.48372 0.01307,-0.61446 0,-1.43811 -0.666757,-2.02642 -0.902084,-0.7975 -2.680105,-0.7975 -1.660358,0 -2.457852,0.58832 -0.784421,0.57524 -1.163558,2.05257 l -2.300968,-0.31377 q 0.313768,-1.47733 1.032821,-2.37941 0.719052,-0.91516 2.078715,-1.39889 1.359663,-0.4968 3.150758,-0.4968 1.77802,0 2.889283,0.41836 1.111263,0.41836 1.63421,1.05897 0.522948,0.62754 0.732127,1.59499 0.117663,0.60139 0.117663,2.17023 v 3.13768 q 0,3.2815 0.14381,4.15744 0.156884,0.86286 0.60139,1.66035 h -2.457853 q -0.366063,-0.73212 -0.470652,-1.71265 z m -0.196105,-5.25562 q -1.281221,0.52295 -3.843663,0.88901 -1.451178,0.20918 -2.052568,0.47065 -0.601389,0.26148 -0.928231,0.77135 -0.326842,0.4968 -0.326842,1.11126 0,0.94131 0.705979,1.56885 0.719052,0.62753 2.091789,0.62753 1.359663,0 2.418631,-0.58831 1.058968,-0.60139 1.555768,-1.63421 0.379137,-0.7975 0.379137,-2.35327 z"
           style="font-family:Arial;-inkscape-font-specification:'Arial, Normal'"
           id="path4684" />
        <path
           d="m 51.173557,140.36882 2.314042,0.3007 q -0.379137,2.39248 -1.947978,3.75214 -1.555769,1.34659 -3.830589,1.34659 -2.850063,0 -4.588863,-1.85646 -1.725726,-1.86954 -1.725726,-5.34714 0,-2.24867 0.7452,-3.93518 0.7452,-1.6865 2.261747,-2.52322 1.529621,-0.84979 3.320715,-0.84979 2.261747,0 3.699852,1.15049 1.438105,1.13741 1.84339,3.24227 l -2.287895,0.35299 q -0.326842,-1.39888 -1.163557,-2.10486 -0.823642,-0.70598 -2.000274,-0.70598 -1.778021,0 -2.889283,1.28122 -1.111263,1.26815 -1.111263,4.02669 0,2.79777 1.072041,4.06592 1.072042,1.26815 2.797768,1.26815 1.385811,0 2.314042,-0.84979 0.928232,-0.84979 1.176631,-2.61474 z"
           style="font-family:Arial;-inkscape-font-specification:'Arial, Normal'"
           id="path4686" />
        <path
           d="m 60.638904,143.34962 0.339916,2.07872 q -0.9936,0.20917 -1.778021,0.20917 -1.281221,0 -1.9872,-0.40528 -0.705978,-0.40528 -0.993599,-1.05897 -0.287621,-0.66676 -0.287621,-2.78469 v -7.98802 h -1.725726 v -1.83032 h 1.725726 v -3.43838 l 2.340189,-1.41195 v 4.85033 h 2.366336 v 1.83032 h -2.366336 v 8.11875 q 0,1.00668 0.117663,1.2943 0.130737,0.28762 0.405284,0.45758 0.287621,0.16996 0.810568,0.16996 0.392211,0 1.032821,-0.0915 z"
           style="font-family:Arial;-inkscape-font-specification:'Arial, Normal'"
           id="path4688" />
      </g>
      <g
         aria-label="Base Template"
         id="text1600-2"
         style="font-size:10.4732px;line-height:1.25;fill:#ffffff;stroke-width:0.264583"
         transform="translate(92.8125,21.552724)">
        <path
           d="M -6.6430385,153.21793 V 145.721 h 2.8126269 q 0.8591297,0 1.3756303,0.23012 0.5216144,0.22501 0.8131048,0.7006 0.2966043,0.47048 0.2966043,0.98698 0,0.4807 -0.2608072,0.90515 -0.2608072,0.42445 -0.7875355,0.68526 0.6801443,0.19944 1.0432288,0.68014 0.36819848,0.48071 0.36819848,1.13528 0,0.52673 -0.22501018,0.98186 -0.2198963,0.45003 -0.5471838,0.69549 -0.3272874,0.24547 -0.8233326,0.37331 -0.4909312,0.12274 -1.2068726,0.12274 z m 0.9920902,-4.34679 h 1.6210959 q 0.6596888,0 0.9460654,-0.0869 0.3784262,-0.1125 0.5676392,-0.37331 0.194327,-0.26081 0.194327,-0.65457 0,-0.37332 -0.1789854,-0.65458 -0.1789853,-0.28638 -0.5113867,-0.38865 -0.3324013,-0.10739 -1.1403923,-0.10739 h -1.4983631 z m 0,3.46209 h 1.8665615 q 0.4807035,0 0.6750305,-0.0358 0.3426291,-0.0614 0.5727531,-0.20455 0.230124,-0.14319 0.3784261,-0.41423 0.1483022,-0.27615 0.1483022,-0.63412 0,-0.41933 -0.2147824,-0.72617 -0.2147824,-0.31194 -0.5983225,-0.43468 -0.3784261,-0.12784 -1.0943675,-0.12784 h -1.733601 z"
           style="font-family:Arial;-inkscape-font-specification:'Arial, Normal'"
           id="path4655" />
        <path
           d="m 3.8097057,152.54801 q -0.5113867,0.43468 -0.9869764,0.61366 -0.4704757,0.17899 -1.0125457,0.17899 -0.8949267,0 -1.37563021,-0.43468 -0.48070351,-0.43979 -0.48070351,-1.11994 0,-0.39888 0.17898535,-0.72617 0.18409922,-0.3324 0.47558964,-0.53184 0.2966043,-0.19944 0.66480273,-0.30172 0.271035,-0.0716 0.8182187,-0.13807 1.1148231,-0.13296 1.6415514,-0.31706 0.00511,-0.18921 0.00511,-0.24035 0,-0.56253 -0.2608072,-0.79265 -0.3528568,-0.31195 -1.0483427,-0.31195 -0.6494612,0 -0.9614071,0.23013 -0.306832,0.22501 -0.4551341,0.80287 L 0.11237976,149.3365 q 0.12273281,-0.57787 0.40399551,-0.93072 0.28126269,-0.35797 0.81310483,-0.54719 0.5318422,-0.19432 1.232442,-0.19432 0.6954859,0 1.1301646,0.16364 0.4346787,0.16364 0.6392334,0.41422 0.2045547,0.24547 0.2863766,0.6239 0.046025,0.23523 0.046025,0.8489 v 1.22733 q 0,1.28358 0.056252,1.6262 0.061366,0.33752 0.2352379,0.64947 h -0.961407 q -0.1431883,-0.28638 -0.1840989,-0.66992 z m -0.076708,-2.05578 q -0.501159,0.20456 -1.503477,0.34775 -0.5676392,0.0818 -0.8028771,0.1841 -0.2352379,0.10227 -0.3630846,0.30172 -0.12784663,0.19432 -0.12784663,0.43467 0,0.3682 0.27614883,0.61367 0.2812627,0.24546 0.8182187,0.24546 0.5318422,0 0.9460654,-0.23012 0.4142233,-0.23524 0.6085502,-0.63923 0.1483022,-0.31195 0.1483022,-0.9205 z"
           style="font-family:Arial;-inkscape-font-specification:'Arial, Normal'"
           id="path4657" />
        <path
           d="m 5.722292,151.59683 0.9102683,-0.14319 q 0.076708,0.54719 0.424451,0.83868 0.3528568,0.29149 0.9818625,0.29149 0.6341195,0 0.9409515,-0.2557 0.3068321,-0.2608 0.3068321,-0.60855 0,-0.31194 -0.271035,-0.49093 -0.1892131,-0.12273 -0.9409515,-0.31194 -1.0125457,-0.2557 -1.4063135,-0.4398 -0.3886539,-0.18921 -0.5932086,-0.5165 -0.1994408,-0.3324 -0.1994408,-0.73128 0,-0.36308 0.1636437,-0.66992 0.1687577,-0.31194 0.4551342,-0.5165 0.2147824,-0.15853 0.5829809,-0.26592 0.3733123,-0.1125 0.7977632,-0.1125 0.6392334,0 1.1199369,0.1841 0.4858174,0.18409 0.7159414,0.50115 0.230124,0.31195 0.3170597,0.83868 l -0.9000405,0.12273 q -0.061366,-0.41934 -0.3579707,-0.65457 -0.2914904,-0.23524 -0.8284465,-0.23524 -0.6341195,0 -0.9051545,0.20967 -0.2710349,0.20967 -0.2710349,0.49093 0,0.17898 0.112505,0.32217 0.1125051,0.1483 0.3528569,0.24547 0.1380744,0.0511 0.8131048,0.23524 0.9767487,0.2608 1.3602887,0.42956 0.3886539,0.16364 0.6085497,0.4807 0.219897,0.31706 0.219897,0.78754 0,0.46025 -0.2710352,0.86936 -0.2659211,0.40399 -0.7721939,0.629 -0.5062729,0.2199 -1.1455063,0.2199 -1.0585704,0 -1.615982,-0.43979 -0.5522976,-0.4398 -0.7057136,-1.30404 z"
           style="font-family:Arial;-inkscape-font-specification:'Arial, Normal'"
           id="path4659" />
        <path
           d="m 15.044872,151.46898 0.951179,0.11762 q -0.22501,0.83356 -0.83356,1.29381 -0.608551,0.46025 -1.554616,0.46025 -1.191531,0 -1.892131,-0.73128 -0.695486,-0.7364 -0.695486,-2.06089 0,-1.37052 0.705714,-2.12737 0.705714,-0.75685 1.830764,-0.75685 1.089254,0 1.779626,0.74151 0.690372,0.74151 0.690372,2.08645 0,0.0818 -0.0051,0.24547 h -4.050182 q 0.05114,0.89493 0.506272,1.37052 0.455135,0.47559 1.135279,0.47559 0.506273,0 0.864243,-0.26592 0.357971,-0.26593 0.56764,-0.84891 z m -3.022296,-1.48813 h 3.032523 q -0.06137,-0.68526 -0.347743,-1.02789 -0.439792,-0.53184 -1.140392,-0.53184 -0.634119,0 -1.068798,0.42445 -0.429565,0.42445 -0.47559,1.13528 z"
           style="font-family:Arial;-inkscape-font-specification:'Arial, Normal'"
           id="path4661" />
        <path
           d="m 21.897455,153.21793 v -6.61223 h -2.469998 v -0.8847 h 5.942313 v 0.8847 h -2.480225 v 6.61223 z"
           style="font-family:Arial;-inkscape-font-specification:'Arial, Normal'"
           id="path4663" />
        <path
           d="m 28.826744,151.46898 0.951179,0.11762 q -0.22501,0.83356 -0.833561,1.29381 -0.60855,0.46025 -1.554615,0.46025 -1.191531,0 -1.892131,-0.73128 -0.695486,-0.7364 -0.695486,-2.06089 0,-1.37052 0.705714,-2.12737 0.705713,-0.75685 1.830764,-0.75685 1.089254,0 1.779626,0.74151 0.690372,0.74151 0.690372,2.08645 0,0.0818 -0.0051,0.24547 h -4.050183 q 0.05114,0.89493 0.506273,1.37052 0.455134,0.47559 1.135279,0.47559 0.506273,0 0.864243,-0.26592 0.357971,-0.26593 0.56764,-0.84891 z m -3.022296,-1.48813 h 3.032523 q -0.06137,-0.68526 -0.347743,-1.02789 -0.439792,-0.53184 -1.140392,-0.53184 -0.63412,0 -1.068798,0.42445 -0.429565,0.42445 -0.47559,1.13528 z"
           style="font-family:Arial;-inkscape-font-specification:'Arial, Normal'"
           id="path4665" />
        <path
           d="M 30.933658,153.21793 V 147.787 h 0.823332 v 0.76197 q 0.255694,-0.39889 0.680145,-0.63924 0.424451,-0.24546 0.966521,-0.24546 0.603436,0 0.986976,0.25058 0.388654,0.25058 0.547184,0.7006 0.644347,-0.95118 1.677348,-0.95118 0.807991,0 1.24267,0.45002 0.434678,0.4449 0.434678,1.37563 v 3.72801 H 37.37713 v -3.42118 q 0,-0.5523 -0.09205,-0.79265 -0.08694,-0.24547 -0.322174,-0.39377 -0.235238,-0.1483 -0.552298,-0.1483 -0.572753,0 -0.951179,0.38354 -0.378426,0.37843 -0.378426,1.2171 v 3.15526 h -0.920496 v -3.52857 q 0,-0.61367 -0.22501,-0.9205 -0.22501,-0.30683 -0.736397,-0.30683 -0.388654,0 -0.721055,0.20455 -0.327288,0.20456 -0.47559,0.59833 -0.148302,0.39376 -0.148302,1.13528 v 2.81774 z"
           style="font-family:Arial;-inkscape-font-specification:'Arial, Normal'"
           id="path4667" />
        <path
           d="M 39.657916,155.29927 V 147.787 h 0.838674 v 0.70571 q 0.296605,-0.41422 0.669917,-0.61878 0.373312,-0.20966 0.905154,-0.20966 0.695486,0 1.227329,0.35797 0.531842,0.35797 0.802877,1.01254 0.271035,0.64946 0.271035,1.42677 0,0.83356 -0.301719,1.50348 -0.296604,0.6648 -0.869357,1.02277 -0.567639,0.35286 -1.196645,0.35286 -0.460248,0 -0.828446,-0.19433 -0.363085,-0.19433 -0.598323,-0.49093 v 2.64387 z m 0.83356,-4.76612 q 0,1.04834 0.424451,1.5495 0.424451,0.50116 1.027888,0.50116 0.613664,0 1.048342,-0.5165 0.439793,-0.52162 0.439793,-1.61087 0,-1.03812 -0.429565,-1.55462 -0.424451,-0.5165 -1.017659,-0.5165 -0.588095,0 -1.043229,0.5523 -0.450021,0.54718 -0.450021,1.59553 z"
           style="font-family:Arial;-inkscape-font-specification:'Arial, Normal'"
           id="path4669" />
        <path
           d="M 45.462152,153.21793 V 145.721 h 0.920497 v 7.49693 z"
           style="font-family:Arial;-inkscape-font-specification:'Arial, Normal'"
           id="path4671" />
        <path
           d="m 51.353327,152.54801 q -0.511387,0.43468 -0.986977,0.61366 -0.470475,0.17899 -1.012545,0.17899 -0.894927,0 -1.375631,-0.43468 -0.480703,-0.43979 -0.480703,-1.11994 0,-0.39888 0.178985,-0.72617 0.1841,-0.3324 0.47559,-0.53184 0.296604,-0.19944 0.664803,-0.30172 0.271035,-0.0716 0.818218,-0.13807 1.114823,-0.13296 1.641552,-0.31706 0.0051,-0.18921 0.0051,-0.24035 0,-0.56253 -0.260808,-0.79265 -0.352856,-0.31195 -1.048342,-0.31195 -0.649461,0 -0.961407,0.23013 -0.306832,0.22501 -0.455135,0.80287 l -0.90004,-0.12273 q 0.122733,-0.57787 0.403995,-0.93072 0.281263,-0.35797 0.813105,-0.54719 0.531842,-0.19432 1.232442,-0.19432 0.695486,0 1.130165,0.16364 0.434679,0.16364 0.639233,0.41422 0.204555,0.24547 0.286377,0.6239 0.04603,0.23523 0.04603,0.8489 v 1.22733 q 0,1.28358 0.05625,1.6262 0.06137,0.33752 0.235238,0.64947 h -0.961407 q -0.143188,-0.28638 -0.184099,-0.66992 z m -0.07671,-2.05578 q -0.501159,0.20456 -1.503477,0.34775 -0.567639,0.0818 -0.802877,0.1841 -0.235238,0.10227 -0.363085,0.30172 -0.127847,0.19432 -0.127847,0.43467 0,0.3682 0.276149,0.61367 0.281263,0.24546 0.818219,0.24546 0.531842,0 0.946065,-0.23012 0.414224,-0.23524 0.608551,-0.63923 0.148302,-0.31195 0.148302,-0.9205 z"
           style="font-family:Arial;-inkscape-font-specification:'Arial, Normal'"
           id="path4673" />
        <path
           d="m 55.643862,152.39459 0.132961,0.81311 q -0.388654,0.0818 -0.695486,0.0818 -0.501159,0 -0.777308,-0.15853 -0.276149,-0.15853 -0.388654,-0.41422 -0.112505,-0.26081 -0.112505,-1.08926 v -3.12457 H 53.12784 V 147.787 h 0.67503 v -1.34495 l 0.915382,-0.5523 v 1.89725 h 0.92561 v 0.71594 h -0.92561 v 3.17571 q 0,0.39377 0.04603,0.50627 0.05114,0.11251 0.15853,0.17899 0.112505,0.0665 0.31706,0.0665 0.153416,0 0.403995,-0.0358 z"
           style="font-family:Arial;-inkscape-font-specification:'Arial, Normal'"
           id="path4675" />
        <path
           d="m 60.261684,151.46898 0.951179,0.11762 q -0.22501,0.83356 -0.83356,1.29381 -0.60855,0.46025 -1.554616,0.46025 -1.191531,0 -1.892131,-0.73128 -0.695486,-0.7364 -0.695486,-2.06089 0,-1.37052 0.705714,-2.12737 0.705714,-0.75685 1.830765,-0.75685 1.089253,0 1.779625,0.74151 0.690372,0.74151 0.690372,2.08645 0,0.0818 -0.0051,0.24547 H 57.18825 q 0.05114,0.89493 0.506273,1.37052 0.455134,0.47559 1.135278,0.47559 0.506273,0 0.864244,-0.26592 0.35797,-0.26593 0.567639,-0.84891 z m -3.022296,-1.48813 h 3.032524 q -0.06137,-0.68526 -0.347743,-1.02789 -0.439793,-0.53184 -1.140393,-0.53184 -0.634119,0 -1.068798,0.42445 -0.429565,0.42445 -0.47559,1.13528 z"
           style="font-family:Arial;-inkscape-font-specification:'Arial, Normal'"
           id="path4677" />
      </g>
      <g
         fill="#61dafb"
         id="g844"
         transform="matrix(0.07133992,0,0,0.07133992,35.611415,138.51855)"
         style="stroke-width:3.70877">
        <path
           d="m 666.3,296.5 c 0,-32.5 -40.7,-63.3 -103.1,-82.4 14.4,-63.6 8,-114.2 -20.2,-130.4 -6.5,-3.8 -14.1,-5.6 -22.4,-5.6 v 22.3 c 4.6,0 8.3,0.9 11.4,2.6 13.6,7.8 19.5,37.5 14.9,75.7 -1.1,9.4 -2.9,19.3 -5.1,29.4 -19.6,-4.8 -41,-8.5 -63.5,-10.9 -13.5,-18.5 -27.5,-35.3 -41.6,-50 32.6,-30.3 63.2,-46.9 84,-46.9 V 78 C 493.2,78 457.2,97.6 420.8,131.6 384.4,97.8 348.4,78.4 320.9,78.4 v 22.3 c 20.7,0 51.4,16.5 84,46.6 -14,14.7 -28,31.4 -41.3,49.9 -22.6,2.4 -44,6.1 -63.6,11 -2.3,-10 -4,-19.7 -5.2,-29 -4.7,-38.2 1.1,-67.9 14.6,-75.8 3,-1.8 6.9,-2.6 11.5,-2.6 V 78.5 c -8.4,0 -16,1.8 -22.6,5.6 -28.1,16.2 -34.4,66.7 -19.9,130.1 -62.2,19.2 -102.7,49.9 -102.7,82.3 0,32.5 40.7,63.3 103.1,82.4 -14.4,63.6 -8,114.2 20.2,130.4 6.5,3.8 14.1,5.6 22.5,5.6 27.5,0 63.5,-19.6 99.9,-53.6 36.4,33.8 72.4,53.2 99.9,53.2 8.4,0 16,-1.8 22.6,-5.6 28.1,-16.2 34.4,-66.7 19.9,-130.1 62,-19.1 102.5,-49.9 102.5,-82.3 z M 536.1,229.8 c -3.7,12.9 -8.3,26.2 -13.5,39.5 -4.1,-8 -8.4,-16 -13.1,-24 -4.6,-8 -9.5,-15.8 -14.4,-23.4 14.2,2.1 27.9,4.7 41,7.9 z m -45.8,106.5 c -7.8,13.5 -15.8,26.3 -24.1,38.2 -14.9,1.3 -30,2 -45.2,2 -15.1,0 -30.2,-0.7 -45,-1.9 -8.3,-11.9 -16.4,-24.6 -24.2,-38 -7.6,-13.1 -14.5,-26.4 -20.8,-39.8 6.2,-13.4 13.2,-26.8 20.7,-39.9 7.8,-13.5 15.8,-26.3 24.1,-38.2 14.9,-1.3 30,-2 45.2,-2 15.1,0 30.2,0.7 45,1.9 8.3,11.9 16.4,24.6 24.2,38 7.6,13.1 14.5,26.4 20.8,39.8 -6.3,13.4 -13.2,26.8 -20.7,39.9 z m 32.3,-13 c 5.4,13.4 10,26.8 13.8,39.8 -13.1,3.2 -26.9,5.9 -41.2,8 4.9,-7.7 9.8,-15.6 14.4,-23.7 4.6,-8 8.9,-16.1 13,-24.1 z M 421.2,430 c -9.3,-9.6 -18.6,-20.3 -27.8,-32 9,0.4 18.2,0.7 27.5,0.7 9.4,0 18.7,-0.2 27.8,-0.7 -9,11.7 -18.3,22.4 -27.5,32 z m -74.4,-58.9 c -14.2,-2.1 -27.9,-4.7 -41,-7.9 3.7,-12.9 8.3,-26.2 13.5,-39.5 4.1,8 8.4,16 13.1,24 4.7,8 9.5,15.8 14.4,23.4 z M 420.7,163 c 9.3,9.6 18.6,20.3 27.8,32 -9,-0.4 -18.2,-0.7 -27.5,-0.7 -9.4,0 -18.7,0.2 -27.8,0.7 9,-11.7 18.3,-22.4 27.5,-32 z m -74,58.9 c -4.9,7.7 -9.8,15.6 -14.4,23.7 -4.6,8 -8.9,16 -13,24 -5.4,-13.4 -10,-26.8 -13.8,-39.8 13.1,-3.1 26.9,-5.8 41.2,-7.9 z m -90.5,125.2 c -35.4,-15.1 -58.3,-34.9 -58.3,-50.6 0,-15.7 22.9,-35.6 58.3,-50.6 8.6,-3.7 18,-7 27.7,-10.1 5.7,19.6 13.2,40 22.5,60.9 -9.2,20.8 -16.6,41.1 -22.2,60.6 -9.9,-3.1 -19.3,-6.5 -28,-10.2 z M 310,490 c -13.6,-7.8 -19.5,-37.5 -14.9,-75.7 1.1,-9.4 2.9,-19.3 5.1,-29.4 19.6,4.8 41,8.5 63.5,10.9 13.5,18.5 27.5,35.3 41.6,50 -32.6,30.3 -63.2,46.9 -84,46.9 -4.5,-0.1 -8.3,-1 -11.3,-2.7 z m 237.2,-76.2 c 4.7,38.2 -1.1,67.9 -14.6,75.8 -3,1.8 -6.9,2.6 -11.5,2.6 -20.7,0 -51.4,-16.5 -84,-46.6 14,-14.7 28,-31.4 41.3,-49.9 22.6,-2.4 44,-6.1 63.6,-11 2.3,10.1 4.1,19.8 5.2,29.1 z m 38.5,-66.7 c -8.6,3.7 -18,7 -27.7,10.1 -5.7,-19.6 -13.2,-40 -22.5,-60.9 9.2,-20.8 16.6,-41.1 22.2,-60.6 9.9,3.1 19.3,6.5 28.1,10.2 35.4,15.1 58.3,34.9 58.3,50.6 -0.1,15.7 -23,35.6 -58.4,50.6 z M 320.8,78.4 Z"
           id="path838"
           style="stroke-width:3.70877" />
        <circle
           cx="420.89999"
           cy="296.5"
           r="45.700001"
           id="circle840"
           style="stroke-width:3.70877" />
        <path
           d="M 520.5,78.1 Z"
           id="path842"
           style="stroke-width:3.70877" />
      </g>
    </g>
  </g>
</svg>
